<?xml version="1.0" encoding="UTF-8" standalone="no"?>
<!-- Created with Inkscape (http://www.inkscape.org/) -->

<svg
   xmlns:dc="http://purl.org/dc/elements/1.1/"
   xmlns:cc="http://creativecommons.org/ns#"
   xmlns:rdf="http://www.w3.org/1999/02/22-rdf-syntax-ns#"
   xmlns:svg="http://www.w3.org/2000/svg"
   xmlns="http://www.w3.org/2000/svg"
   version="1.1"
   width="1052.3622"
   height="744.09448"
   id="svg2">
  <defs
     id="defs4" />
  <metadata
     id="metadata7">
    <rdf:RDF>
      <cc:Work
         rdf:about="">
        <dc:format>image/svg+xml</dc:format>
        <dc:type
           rdf:resource="http://purl.org/dc/dcmitype/StillImage" />
        <dc:title></dc:title>
      </cc:Work>
    </rdf:RDF>
  </metadata>
  <g
     transform="translate(0,-308.2677)"
     id="layer1">
    <g
       transform="translate(-106.06061,-145.45455)"
       id="g4087">
      <path
         d="m 325.30303,628.93795 310.60606,0 0,1.51515"
         id="path3579-6"
         style="fill:none;stroke:#000000;stroke-width:1px;stroke-linecap:butt;stroke-linejoin:miter;stroke-opacity:1" />
      <path
         d="m 329.84848,754.69552 310.60608,0 0,1.51515"
         id="path3579-6-2"
         style="fill:none;stroke:#000000;stroke-width:1px;stroke-linecap:butt;stroke-linejoin:miter;stroke-opacity:1" />
      <g
         transform="translate(-478.78788,234.84848)"
         id="g3888">
        <g
           transform="matrix(1.0629921,0,0,-1.0629921,-186.02362,789.27165)"
           id="g3890"
           xml:space="preserve"
           style="font-style:normal;font-variant:normal;font-weight:normal;font-stretch:normal;letter-spacing:normal;word-spacing:normal;text-anchor:start;fill:none;stroke:#000000;stroke-linecap:butt;stroke-linejoin:miter;stroke-miterlimit:10.43299961;stroke-opacity:1;stroke-dasharray:none;stroke-dashoffset:0"><path
             d="m 790.17,284.91 0.21,1.28 3.39,13.56 c 0.43,1.74 0.54,1.89 2.68,1.89 h 4.78 c 4.15,0 6.79,-1.34 6.79,-4.78 0,-1.95 -1,-6.23 -2.94,-8.03 -2.5,-2.23 -5.49,-2.64 -7.69,-2.64 h -7.01 l -0.21,-1.28 h 8.47 c 7.08,0 14,5.17 14,10.75 0,3.84 -3.28,7.53 -9.81,7.53 h -16.14 c -0.96,0 -1.5,0 -1.5,-0.95 0,-0.6 0.45,-0.6 1.45,-0.6 0.64,0 1.55,-0.04 2.14,-0.09 0.8,-0.11 1.1,-0.25 1.1,-0.8 0,-0.2 -0.05,-0.36 -0.21,-0.95 L 783,273.05 c -0.5,-1.95 -0.59,-2.34 -4.53,-2.34 -0.85,0 -1.39,0 -1.39,-0.96 0,-0.59 0.59,-0.59 0.73,-0.59 1.41,0 4.94,0.16 6.33,0.16 1.05,0 2.14,-0.07 3.19,-0.07 1.11,0 2.2,-0.09 3.25,-0.09 0.34,0 0.98,0 0.98,1 0,0.55 -0.44,0.55 -1.39,0.55 -1.84,0 -3.23,0 -3.23,0.89 0,0.29 0.09,0.54 0.14,0.84 z"
             id="path3892"
             style="fill:#000000;stroke-width:0" /><path
             d="m 862.11,285.46 0.14,0 0.15,0 0.14,0 0.07,0.01 0.08,0 0.07,0.01 0.07,0.01 0.07,0.01 0.07,0.01 0.07,0.01 0.06,0.02 0.07,0.02 0.06,0.02 0.06,0.02 0.06,0.03 0.06,0.03 0.05,0.04 0.05,0.04 0.05,0.04 0.04,0.04 0.04,0.05 0.02,0.03 0.02,0.03 0.01,0.02 0.02,0.03 0.01,0.04 0.02,0.03 0.01,0.03 0.01,0.04 0.01,0.03 0.01,0.04 0,0.04 0.01,0.04 0,0.04 0.01,0.04 0,0.05 0,0.04 c 0,1 -0.95,1 -1.64,1 h -29.84 c -0.71,0 -1.64,0 -1.64,-1 0,-0.98 0.93,-0.98 1.68,-0.98 z"
             id="path3894"
             style="fill:#000000;stroke-width:0" /><path
             d="m 862.16,275.79 0.07,0 0.06,0 0.14,0 0.14,0 0.07,0.01 0.07,0 0.07,0.01 0.07,0.01 0.06,0.01 0.07,0.01 0.07,0.01 0.06,0.02 0.07,0.02 0.06,0.02 0.06,0.02 0.06,0.03 0.05,0.03 0.05,0.04 0.05,0.04 0.05,0.04 0.04,0.05 0.02,0.02 0.02,0.03 0.02,0.02 0.02,0.03 0.01,0.03 0.02,0.03 0.01,0.03 0.02,0.04 0.01,0.03 0.01,0.03 0.01,0.04 0.01,0.04 0,0.04 0.01,0.04 0,0.04 0.01,0.04 0,0.05 0,0.05 c 0,1 -0.95,1 -1.69,1 h -29.75 c -0.75,0 -1.68,0 -1.68,-1 0,-1 0.93,-1 1.64,-1 z"
             id="path3896"
             style="fill:#000000;stroke-width:0" /><path
             d="m 899.08,311.05 0.1,0 0.1,0 0.09,0 0.09,0 0.08,0 0.08,0.01 0.07,0 0.07,0 0.07,0.01 0.06,0 0.06,0.01 0.05,0.01 0.05,0.01 0.05,0.01 0.05,0.01 0.04,0.02 0.04,0.02 0.03,0.02 0.03,0.02 0.03,0.02 0.03,0.03 0.02,0.03 0.02,0.03 0.02,0.04 0.02,0.04 0.01,0.04 0.01,0.04 0.01,0.05 0,0.05 0.01,0.06 0,0.06 0,0.06 c 0.1,34.93 4.13,63.93 21.56,88.29 0.37,0.45 0.37,0.54 0.37,0.64 0,0.5 -0.37,0.5 -1.16,0.5 -0.8,0 -0.89,0 -0.99,-0.1 -0.2,-0.15 -6.53,-7.42 -11.56,-17.44 -6.58,-13.15 -10.72,-28.25 -12.56,-46.39 -0.14,-1.53 -1.19,-11.9 -1.19,-23.7 v -1.95 c 0.05,-0.55 0.34,-0.55 1.39,-0.55 z"
             id="path3898"
             style="fill:#000000;stroke-width:0" /><path
             d="m 900.47,310.68 0,0.06 0,0.05 0,0.06 0,0.05 0,0.06 0,0.05 0,0.05 0,0.05 0,0.04 -0.01,0.05 0,0.04 0,0.04 0,0.04 -0.01,0.04 0,0.04 -0.01,0.03 0,0.04 -0.01,0.03 0,0.03 -0.01,0.03 -0.01,0.06 -0.02,0.05 -0.02,0.05 -0.03,0.04 -0.03,0.04 -0.03,0.03 -0.03,0.04 -0.04,0.02 -0.05,0.03 -0.05,0.02 -0.05,0.01 -0.03,0.01 -0.03,0.01 -0.03,0.01 -0.03,0 -0.04,0.01 -0.03,0 -0.04,0.01 -0.04,0 -0.04,0 -0.04,0.01 -0.04,0 -0.05,0 -0.04,0 -0.05,0.01 -0.05,0 -0.05,0 -0.06,0 -0.05,0 -0.06,0 -0.06,0 -0.06,0 -0.06,0 h -2.75 c -1.34,0 -1.39,-0.05 -1.39,-1.34 v -28.21 c 0,-1.29 0.05,-1.34 1.39,-1.34 h 2.75 c 1.35,0 1.39,0.05 1.39,1.34 z"
             id="path3900"
             style="fill:#000000;stroke-width:0" /><path
             d="m 900.47,280.8 0,0.06 0,0.05 0,0.06 0,0.06 0,0.05 0,0.05 0,0.05 0,0.05 0,0.04 -0.01,0.05 0,0.04 0,0.04 0,0.04 -0.01,0.04 0,0.04 -0.01,0.03 0,0.04 -0.01,0.03 0,0.03 -0.01,0.03 -0.01,0.06 -0.02,0.05 -0.02,0.05 -0.03,0.04 -0.03,0.04 -0.03,0.04 -0.03,0.03 -0.04,0.02 -0.05,0.03 -0.05,0.02 -0.05,0.02 -0.03,0 -0.03,0.01 -0.03,0.01 -0.03,0 -0.04,0.01 -0.03,0 -0.04,0.01 -0.04,0 -0.04,0.01 -0.04,0 -0.04,0 -0.05,0 -0.04,0 -0.05,0.01 -0.05,0 -0.05,0 -0.06,0 -0.05,0 -0.06,0 -0.06,0 -0.06,0 -0.06,0 h -2.75 c -1.34,0 -1.39,-0.05 -1.39,-1.34 v -28.21 c 0,-1.29 0.05,-1.34 1.39,-1.34 h 2.75 c 1.35,0 1.39,0.05 1.39,1.34 z"
             id="path3902"
             style="fill:#000000;stroke-width:0" /><path
             d="m 896.33,252.2 -0.09,0 -0.1,0 -0.08,0 -0.09,0 -0.08,0 -0.07,0 -0.07,0 -0.07,-0.01 -0.06,0 -0.07,0 -0.05,-0.01 -0.06,-0.01 -0.05,0 -0.04,-0.01 -0.05,-0.01 -0.04,-0.02 -0.04,-0.01 -0.03,-0.01 -0.03,-0.02 -0.03,-0.02 -0.03,-0.02 -0.03,-0.02 -0.02,-0.03 -0.02,-0.03 -0.02,-0.03 -0.01,-0.03 -0.02,-0.04 -0.01,-0.03 -0.01,-0.04 -0.01,-0.05 0,-0.04 -0.01,-0.05 v -1.94 c 0,-30.44 5.42,-48.28 6.97,-53.31 3.39,-11.07 8.92,-22.72 17.25,-32.99 0.74,-0.89 0.94,-1.14 1.14,-1.23 0.1,-0.07 0.14,-0.11 0.94,-0.11 0.79,0 1.16,0 1.16,0.5 0,0.11 0,0.2 -0.3,0.65 -16.6,23.02 -21.58,50.72 -21.63,88.29 0,0.68 -0.29,0.68 -1.39,0.68 z"
             id="path3904"
             style="fill:#000000;stroke-width:0" /><path
             d="m 963.6,391.29 0,0.05 0,0.06 0,0.05 0,0.05 0,0.05 0,0.05 0,0.04 0,0.05 0,0.04 0,0.04 0,0.04 -0.01,0.04 0,0.04 0,0.03 0,0.04 -0.01,0.03 0,0.07 -0.01,0.06 -0.01,0.05 -0.02,0.05 -0.01,0.05 -0.02,0.04 -0.03,0.04 -0.02,0.03 -0.03,0.03 -0.03,0.03 -0.04,0.03 -0.04,0.02 -0.04,0.02 -0.02,0.01 -0.03,0 -0.02,0.01 -0.03,0.01 -0.03,0 -0.03,0.01 -0.03,0.01 -0.03,0 -0.04,0 -0.03,0.01 -0.04,0 -0.03,0 -0.04,0.01 -0.04,0 -0.04,0 -0.05,0 -0.04,0 -0.05,0 -0.05,0.01 -0.05,0 -0.05,0 -0.05,0 c -3.09,-3.19 -7.47,-3.19 -9.06,-3.19 v -1.55 c 1,0 3.94,0 6.51,1.3 v -25.81 c 0,-1.8 -0.14,-2.39 -4.62,-2.39 h -1.59 v -1.55 c 1.75,0.15 6.07,0.15 8.06,0.15 2,0 6.33,0 8.08,-0.15 v 1.55 h -1.6 c -4.48,0 -4.64,0.54 -4.64,2.39 z"
             id="path3906"
             style="fill:#000000;stroke-width:0" /><path
             d="m 1046.5,375.34 0,0.74 0,0.75 0,0.75 0,0.74 -0.1,0.75 -0.1,0.74 0,0.74 -0.1,0.73 -0.1,0.73 -0.2,0.73 -0.1,0.72 -0.2,0.72 -0.2,0.71 -0.3,0.71 -0.3,0.7 -0.1,0.35 -0.2,0.34 c -2.3,4.8 -6.4,5.6 -8.4,5.6 -3,0 -6.7,-1.3 -8.7,-5.94 -1.6,-3.44 -1.9,-7.33 -1.9,-11.31 0,-3.74 0.2,-8.22 2.3,-12 2.1,-4.04 5.8,-5.04 8.2,-5.04 v 1.1 c -1.9,0 -4.9,1.25 -5.8,6.03 -0.5,2.98 -0.5,7.56 -0.5,10.52 0,3.18 0,6.46 0.4,9.15 0.9,5.94 4.7,6.38 5.9,6.38 1.6,0 4.9,-0.89 5.9,-5.83 0.5,-2.78 0.5,-6.58 0.5,-9.7 0,-3.75 0,-7.13 -0.6,-10.32 -0.7,-4.73 -3.6,-6.23 -5.8,-6.23 h 0 v -1.1 c 2.7,0 6.5,1.05 8.7,5.79 1.6,3.43 1.8,7.31 1.8,11.25 z"
             id="path3908"
             style="fill:#000000;stroke-width:0" /><path
             d="m 1121.3,375.34 0,0.74 0,0.75 -0.1,0.75 0,0.74 0,0.75 -0.1,0.74 -0.1,0.74 -0.1,0.73 -0.1,0.73 -0.1,0.73 -0.2,0.72 -0.2,0.72 -0.2,0.71 -0.2,0.71 -0.3,0.7 -0.2,0.35 -0.1,0.34 c -2.3,4.8 -6.4,5.6 -8.5,5.6 -3,0 -6.6,-1.3 -8.7,-5.94 -1.6,-3.44 -1.8,-7.33 -1.8,-11.31 0,-3.74 0.2,-8.22 2.2,-12 2.2,-4.04 5.8,-5.04 8.3,-5.04 v 1.1 c -2,0 -4.9,1.25 -5.8,6.03 -0.6,2.98 -0.6,7.56 -0.6,10.52 0,3.18 0,6.46 0.4,9.15 1,5.94 4.7,6.38 6,6.38 1.6,0 4.9,-0.89 5.8,-5.83 0.5,-2.78 0.5,-6.58 0.5,-9.7 0,-3.75 0,-7.13 -0.5,-10.32 -0.8,-4.73 -3.6,-6.23 -5.8,-6.23 h 0 v -1.1 c 2.6,0 6.4,1.05 8.6,5.79 1.6,3.43 1.9,7.31 1.9,11.25 z"
             id="path3910"
             style="fill:#000000;stroke-width:0" /><path
             d="m 1196,375.34 0,0.74 0,0.75 0,0.75 0,0.74 -0.1,0.75 0,0.74 -0.1,0.74 -0.1,0.73 -0.1,0.73 -0.2,0.73 -0.1,0.72 -0.2,0.72 -0.2,0.71 -0.3,0.71 -0.3,0.7 -0.1,0.35 -0.2,0.34 c -2.2,4.8 -6.3,5.6 -8.4,5.6 -3,0 -6.7,-1.3 -8.7,-5.94 -1.6,-3.44 -1.8,-7.33 -1.8,-11.31 0,-3.74 0.1,-8.22 2.2,-12 2.1,-4.04 5.8,-5.04 8.2,-5.04 v 1.1 c -1.9,0 -4.9,1.25 -5.8,6.03 -0.5,2.98 -0.5,7.56 -0.5,10.52 0,3.18 0,6.46 0.4,9.15 0.9,5.94 4.7,6.38 5.9,6.38 1.7,0 4.9,-0.89 5.9,-5.83 0.5,-2.78 0.5,-6.58 0.5,-9.7 0,-3.75 0,-7.13 -0.6,-10.32 -0.7,-4.73 -3.5,-6.23 -5.8,-6.23 h 0 v -1.1 c 2.7,0 6.5,1.05 8.7,5.79 1.6,3.43 1.8,7.31 1.8,11.25 z"
             id="path3912"
             style="fill:#000000;stroke-width:0" /><path
             d="m 971.88,315.46 0,0.74 -0.01,0.75 -0.02,0.75 -0.03,0.74 -0.05,0.75 -0.06,0.74 -0.08,0.74 -0.09,0.73 -0.12,0.73 -0.14,0.73 -0.16,0.72 -0.19,0.72 -0.21,0.72 -0.25,0.7 -0.28,0.7 -0.15,0.35 -0.16,0.34 c -2.28,4.8 -6.37,5.6 -8.47,5.6 -2.98,0 -6.62,-1.3 -8.67,-5.94 -1.59,-3.44 -1.84,-7.33 -1.84,-11.31 0,-3.74 0.2,-8.22 2.25,-12 2.14,-4.03 5.78,-5.03 8.22,-5.03 v 1.09 c -1.94,0 -4.89,1.25 -5.78,6.03 -0.55,2.99 -0.55,7.56 -0.55,10.52 0,3.18 0,6.47 0.41,9.15 0.93,5.94 4.67,6.38 5.92,6.38 1.64,0 4.93,-0.89 5.87,-5.83 0.5,-2.78 0.5,-6.58 0.5,-9.7 0,-3.75 0,-7.13 -0.54,-10.32 -0.75,-4.73 -3.6,-6.23 -5.83,-6.23 h 0 v -1.09 c 2.68,0 6.47,1.04 8.67,5.78 1.59,3.43 1.84,7.31 1.84,11.25 z"
             id="path3914"
             style="fill:#000000;stroke-width:0" /><path
             d="m 1038.2,331.41 0,0.05 0,0.06 0,0.05 0,0.05 0,0.05 0,0.05 0,0.04 0,0.05 0,0.04 0,0.04 0,0.04 0,0.04 0,0.04 0,0.03 0,0.04 0,0.03 0,0.07 0,0.06 0,0.05 0,0.05 0,0.05 -0.1,0.04 0,0.04 0,0.03 0,0.04 -0.1,0.02 0,0.03 0,0.02 -0.1,0.02 0,0.01 0,0.01 -0.1,0 0,0.01 0,0.01 0,0 -0.1,0.01 0,0 0,0.01 -0.1,0 0,0 0,0.01 -0.1,0 0,0 -0.1,0 0,0 -0.1,0 0,0.01 0,0 -0.1,0 0,0 -0.1,0 c -3.1,-3.19 -7.5,-3.19 -9.1,-3.19 v -1.55 c 1,0 4,0 6.6,1.3 v -25.81 c 0,-1.8 -0.2,-2.39 -4.7,-2.39 h -1.6 v -1.55 c 1.8,0.16 6.1,0.16 8.1,0.16 2,0 6.3,0 8.1,-0.16 v 1.55 h -1.6 c -4.5,0 -4.7,0.54 -4.7,2.39 z"
             id="path3916"
             style="fill:#000000;stroke-width:0" /><path
             d="m 1121.3,315.46 0,0.74 0,0.75 -0.1,0.75 0,0.74 0,0.75 -0.1,0.74 -0.1,0.74 -0.1,0.73 -0.1,0.73 -0.1,0.73 -0.2,0.72 -0.2,0.72 -0.2,0.72 -0.2,0.7 -0.3,0.7 -0.2,0.35 -0.1,0.34 c -2.3,4.8 -6.4,5.6 -8.5,5.6 -3,0 -6.6,-1.3 -8.7,-5.94 -1.6,-3.44 -1.8,-7.33 -1.8,-11.31 0,-3.74 0.2,-8.22 2.2,-12 2.2,-4.03 5.8,-5.03 8.3,-5.03 v 1.09 c -2,0 -4.9,1.25 -5.8,6.03 -0.6,2.99 -0.6,7.56 -0.6,10.52 0,3.18 0,6.47 0.4,9.15 1,5.94 4.7,6.38 6,6.38 1.6,0 4.9,-0.89 5.8,-5.83 0.5,-2.78 0.5,-6.58 0.5,-9.7 0,-3.75 0,-7.13 -0.5,-10.32 -0.8,-4.73 -3.6,-6.23 -5.8,-6.23 h 0 v -1.09 c 2.6,0 6.4,1.04 8.6,5.78 1.6,3.43 1.9,7.31 1.9,11.25 z"
             id="path3918"
             style="fill:#000000;stroke-width:0" /><path
             d="m 1196,315.46 0,0.74 0,0.75 0,0.75 0,0.74 -0.1,0.75 0,0.74 -0.1,0.74 -0.1,0.73 -0.1,0.73 -0.2,0.73 -0.1,0.72 -0.2,0.72 -0.2,0.72 -0.3,0.7 -0.3,0.7 -0.1,0.35 -0.2,0.34 c -2.2,4.8 -6.3,5.6 -8.4,5.6 -3,0 -6.7,-1.3 -8.7,-5.94 -1.6,-3.44 -1.8,-7.33 -1.8,-11.31 0,-3.74 0.1,-8.22 2.2,-12 2.1,-4.03 5.8,-5.03 8.2,-5.03 v 1.09 c -1.9,0 -4.9,1.25 -5.8,6.03 -0.5,2.99 -0.5,7.56 -0.5,10.52 0,3.18 0,6.47 0.4,9.15 0.9,5.94 4.7,6.38 5.9,6.38 1.7,0 4.9,-0.89 5.9,-5.83 0.5,-2.78 0.5,-6.58 0.5,-9.7 0,-3.75 0,-7.13 -0.6,-10.32 -0.7,-4.73 -3.5,-6.23 -5.8,-6.23 h 0 v -1.09 c 2.7,0 6.5,1.04 8.7,5.78 1.6,3.43 1.8,7.31 1.8,11.25 z"
             id="path3920"
             style="fill:#000000;stroke-width:0" /><path
             d="m 971.88,255.7 0,0.75 -0.01,0.74 -0.02,0.75 -0.03,0.75 -0.05,0.74 -0.06,0.74 -0.08,0.74 -0.09,0.73 -0.12,0.74 -0.14,0.72 -0.16,0.73 -0.19,0.72 -0.21,0.71 -0.25,0.7 -0.28,0.7 -0.15,0.35 -0.16,0.35 c -2.28,4.79 -6.37,5.59 -8.47,5.59 -2.98,0 -6.62,-1.3 -8.67,-5.94 -1.59,-3.44 -1.84,-7.33 -1.84,-11.31 0,-3.74 0.2,-8.22 2.25,-12 2.14,-4.03 5.78,-5.03 8.22,-5.03 v 1.09 c -1.94,0 -4.89,1.25 -5.78,6.03 -0.55,2.99 -0.55,7.56 -0.55,10.52 0,3.19 0,6.47 0.41,9.15 0.93,5.94 4.67,6.38 5.92,6.38 1.64,0 4.93,-0.89 5.87,-5.83 0.5,-2.78 0.5,-6.58 0.5,-9.7 0,-3.75 0,-7.13 -0.54,-10.31 -0.75,-4.74 -3.6,-6.24 -5.83,-6.24 h 0 v -1.09 c 2.68,0 6.47,1.04 8.67,5.78 1.59,3.44 1.84,7.31 1.84,11.25 z"
             id="path3922"
             style="fill:#000000;stroke-width:0" /><path
             d="m 1046.5,255.7 0,0.75 0,0.74 0,0.75 0,0.75 -0.1,0.74 -0.1,0.74 0,0.74 -0.1,0.73 -0.1,0.74 -0.2,0.72 -0.1,0.73 -0.2,0.72 -0.2,0.71 -0.3,0.7 -0.3,0.7 -0.1,0.35 -0.2,0.35 c -2.3,4.79 -6.4,5.59 -8.4,5.59 -3,0 -6.7,-1.3 -8.7,-5.94 -1.6,-3.44 -1.9,-7.33 -1.9,-11.31 0,-3.74 0.2,-8.22 2.3,-12 2.1,-4.03 5.8,-5.03 8.2,-5.03 v 1.09 c -1.9,0 -4.9,1.25 -5.8,6.03 -0.5,2.99 -0.5,7.56 -0.5,10.52 0,3.19 0,6.47 0.4,9.15 0.9,5.94 4.7,6.38 5.9,6.38 1.6,0 4.9,-0.89 5.9,-5.83 0.5,-2.78 0.5,-6.58 0.5,-9.7 0,-3.75 0,-7.13 -0.6,-10.31 -0.7,-4.74 -3.6,-6.24 -5.8,-6.24 h 0 v -1.09 c 2.7,0 6.5,1.04 8.7,5.78 1.6,3.44 1.8,7.31 1.8,11.25 z"
             id="path3924"
             style="fill:#000000;stroke-width:0" /><path
             d="m 1113,271.65 0,0.06 0,0.05 0,0.05 0,0.05 0,0.05 0,0.05 0,0.04 0,0.05 0,0.04 0,0.04 0,0.04 0,0.04 0,0.04 0,0.04 0,0.03 0,0.04 0,0.06 0,0.06 0,0.05 -0.1,0.05 0,0.05 0,0.04 0,0.04 0,0.04 -0.1,0.03 0,0.03 0,0.02 -0.1,0.02 0,0.02 0,0.01 -0.1,0.01 0,0 0,0.01 -0.1,0.01 0,0 0,0.01 0,0 -0.1,0.01 0,0 0,0 -0.1,0.01 0,0 -0.1,0 0,0 0,0.01 -0.1,0 0,0 -0.1,0 0,0 -0.1,0 0,0 c -3.1,-3.19 -7.5,-3.19 -9.1,-3.19 v -1.55 c 1,0 3.9,0 6.5,1.3 V 243.7 c 0,-1.8 -0.1,-2.39 -4.6,-2.39 h -1.6 v -1.55 c 1.7,0.16 6.1,0.16 8.1,0.16 2,0 6.3,0 8,-0.16 v 1.55 h -1.6 c -4.4,0 -4.6,0.54 -4.6,2.39 z"
             id="path3926"
             style="fill:#000000;stroke-width:0" /><path
             d="m 1196,255.7 0,0.75 0,0.74 0,0.75 0,0.75 -0.1,0.74 0,0.74 -0.1,0.74 -0.1,0.73 -0.1,0.74 -0.2,0.72 -0.1,0.73 -0.2,0.72 -0.2,0.71 -0.3,0.7 -0.3,0.7 -0.1,0.35 -0.2,0.35 c -2.2,4.79 -6.3,5.59 -8.4,5.59 -3,0 -6.7,-1.3 -8.7,-5.94 -1.6,-3.44 -1.8,-7.33 -1.8,-11.31 0,-3.74 0.1,-8.22 2.2,-12 2.1,-4.03 5.8,-5.03 8.2,-5.03 v 1.09 c -1.9,0 -4.9,1.25 -5.8,6.03 -0.5,2.99 -0.5,7.56 -0.5,10.52 0,3.19 0,6.47 0.4,9.15 0.9,5.94 4.7,6.38 5.9,6.38 1.7,0 4.9,-0.89 5.9,-5.83 0.5,-2.78 0.5,-6.58 0.5,-9.7 0,-3.75 0,-7.13 -0.6,-10.31 -0.7,-4.74 -3.5,-6.24 -5.8,-6.24 h 0 v -1.09 c 2.7,0 6.5,1.04 8.7,5.78 1.6,3.44 1.8,7.31 1.8,11.25 z"
             id="path3928"
             style="fill:#000000;stroke-width:0" /><path
             d="m 971.88,195.94 0,0.75 -0.01,0.74 -0.02,0.75 -0.03,0.74 -0.05,0.75 -0.06,0.74 -0.08,0.74 -0.09,0.73 -0.12,0.73 -0.14,0.73 -0.16,0.73 -0.19,0.71 -0.21,0.72 -0.25,0.7 -0.28,0.7 -0.15,0.35 -0.16,0.34 c -2.28,4.8 -6.37,5.6 -8.47,5.6 -2.98,0 -6.62,-1.3 -8.67,-5.94 -1.59,-3.44 -1.84,-7.33 -1.84,-11.31 0,-3.74 0.2,-8.22 2.25,-12 2.14,-4.03 5.78,-5.03 8.22,-5.03 V 180 c -1.94,0 -4.89,1.25 -5.78,6.03 -0.55,2.99 -0.55,7.56 -0.55,10.52 0,3.18 0,6.47 0.41,9.15 0.93,5.94 4.67,6.38 5.92,6.38 1.64,0 4.93,-0.89 5.87,-5.83 0.5,-2.78 0.5,-6.58 0.5,-9.7 0,-3.75 0,-7.13 -0.54,-10.32 -0.75,-4.73 -3.6,-6.23 -5.83,-6.23 h 0 v -1.09 c 2.68,0 6.47,1.04 8.67,5.78 1.59,3.43 1.84,7.31 1.84,11.25 z"
             id="path3930"
             style="fill:#000000;stroke-width:0" /><path
             d="m 1046.5,195.94 0,0.75 0,0.74 0,0.75 0,0.74 -0.1,0.75 -0.1,0.74 0,0.74 -0.1,0.73 -0.1,0.73 -0.2,0.73 -0.1,0.73 -0.2,0.71 -0.2,0.72 -0.3,0.7 -0.3,0.7 -0.1,0.35 -0.2,0.34 c -2.3,4.8 -6.4,5.6 -8.4,5.6 -3,0 -6.7,-1.3 -8.7,-5.94 -1.6,-3.44 -1.9,-7.33 -1.9,-11.31 0,-3.74 0.2,-8.22 2.3,-12 2.1,-4.03 5.8,-5.03 8.2,-5.03 V 180 c -1.9,0 -4.9,1.25 -5.8,6.03 -0.5,2.99 -0.5,7.56 -0.5,10.52 0,3.18 0,6.47 0.4,9.15 0.9,5.94 4.7,6.38 5.9,6.38 1.6,0 4.9,-0.89 5.9,-5.83 0.5,-2.78 0.5,-6.58 0.5,-9.7 0,-3.75 0,-7.13 -0.6,-10.32 -0.7,-4.73 -3.6,-6.23 -5.8,-6.23 h 0 v -1.09 c 2.7,0 6.5,1.04 8.7,5.78 1.6,3.43 1.8,7.31 1.8,11.25 z"
             id="path3932"
             style="fill:#000000;stroke-width:0" /><path
             d="m 1121.3,195.94 0,0.75 0,0.74 -0.1,0.75 0,0.74 0,0.75 -0.1,0.74 -0.1,0.74 -0.1,0.73 -0.1,0.73 -0.1,0.73 -0.2,0.73 -0.2,0.71 -0.2,0.72 -0.2,0.7 -0.3,0.7 -0.2,0.35 -0.1,0.34 c -2.3,4.8 -6.4,5.6 -8.5,5.6 -3,0 -6.6,-1.3 -8.7,-5.94 -1.6,-3.44 -1.8,-7.33 -1.8,-11.31 0,-3.74 0.2,-8.22 2.2,-12 2.2,-4.03 5.8,-5.03 8.3,-5.03 V 180 c -2,0 -4.9,1.25 -5.8,6.03 -0.6,2.99 -0.6,7.56 -0.6,10.52 0,3.18 0,6.47 0.4,9.15 1,5.94 4.7,6.38 6,6.38 1.6,0 4.9,-0.89 5.8,-5.83 0.5,-2.78 0.5,-6.58 0.5,-9.7 0,-3.75 0,-7.13 -0.5,-10.32 -0.8,-4.73 -3.6,-6.23 -5.8,-6.23 h 0 v -1.09 c 2.6,0 6.4,1.04 8.6,5.78 1.6,3.43 1.9,7.31 1.9,11.25 z"
             id="path3934"
             style="fill:#000000;stroke-width:0" /><path
             d="m 1187.8,211.89 -0.1,0.06 0,0.05 0,0.05 0,0.05 0,0.05 0,0.05 0,0.04 0,0.05 0,0.04 0,0.04 0,0.04 0,0.04 0,0.04 0,0.04 0,0.03 0,0.03 0,0.07 0,0.06 0,0.05 0,0.05 0,0.05 0,0.04 -0.1,0.04 0,0.03 0,0.04 -0.1,0.02 0,0.03 0,0.02 -0.1,0.02 0,0.01 0,0.01 0,0 -0.1,0.01 0,0.01 0,0 -0.1,0.01 0,0 0,0.01 -0.1,0 0,0 0,0.01 -0.1,0 0,0 -0.1,0 0,0 0,0.01 -0.1,0 0,0 -0.1,0 0,0 -0.1,0 c -3.1,-3.19 -7.5,-3.19 -9,-3.19 v -1.55 c 1,0 3.9,0 6.5,1.3 v -25.81 c 0,-1.8 -0.2,-2.39 -4.7,-2.39 h -1.6 V 180 c 1.8,0.16 6.1,0.16 8.1,0.16 2,0 6.3,0 8.1,-0.16 v 1.55 h -1.6 c -4.5,0 -4.6,0.54 -4.6,2.39 z"
             id="path3936"
             style="fill:#000000;stroke-width:0" /><path
             d="m 1252,313.55 0,2.82 -0.1,2.74 -0.1,2.67 -0.1,2.59 -0.1,2.52 -0.1,2.45 -0.2,2.37 -0.2,2.3 -0.2,2.23 -0.2,2.15 -0.3,2.07 -0.2,2 -0.3,1.93 -0.3,1.85 -0.3,1.78 -0.2,1.71 -0.3,1.63 -0.3,1.55 -0.3,1.48 -0.3,1.41 -0.3,1.33 -0.3,1.26 -0.3,1.18 -0.3,1.11 -0.2,1.03 -0.3,0.96 -0.2,0.88 -0.3,0.81 -0.2,0.74 -0.2,0.65 -0.1,0.59 -0.2,0.51 c -3.4,11.06 -8.9,22.72 -17.2,32.98 -0.8,0.91 -1,1.16 -1.2,1.25 -0.1,0.05 -0.2,0.1 -0.9,0.1 -0.8,0 -1.2,0 -1.2,-0.5 0,-0.1 0,-0.19 0.7,-1.1 17.3,-24.2 21.2,-54.09 21.2,-87.83 0,-0.7 0.3,-0.7 1.4,-0.7 h 2.8 c 1,0 1.3,0 1.4,0.55 z"
             id="path3938"
             style="fill:#000000;stroke-width:0" /><path
             d="m 1252,310.68 0,0.06 0,0.05 0,0.06 0,0.05 0,0.06 0,0.05 0,0.05 0,0.05 0,0.04 0,0.05 0,0.04 0,0.04 0,0.04 -0.1,0.04 0,0.04 0,0.03 0,0.04 0,0.03 0,0.03 0,0.03 0,0.06 0,0.05 0,0.05 -0.1,0.04 0,0.04 0,0.03 -0.1,0.04 0,0.02 0,0.03 -0.1,0.02 0,0.01 -0.1,0.01 0,0.01 0,0.01 -0.1,0 0,0.01 0,0 -0.1,0.01 0,0 -0.1,0 0,0.01 0,0 -0.1,0 0,0 -0.1,0.01 0,0 -0.1,0 0,0 -0.1,0 0,0 -0.1,0 -0.1,0 0,0 h -2.8 c -1.3,0 -1.4,-0.05 -1.4,-1.34 v -28.21 c 0,-1.29 0.1,-1.34 1.4,-1.34 h 2.8 c 1.3,0 1.4,0.05 1.4,1.34 z"
             id="path3940"
             style="fill:#000000;stroke-width:0" /><path
             d="m 1252,280.8 0,0.06 0,0.05 0,0.06 0,0.06 0,0.05 0,0.05 0,0.05 0,0.05 0,0.04 0,0.05 0,0.04 0,0.04 0,0.04 -0.1,0.04 0,0.04 0,0.03 0,0.04 0,0.03 0,0.03 0,0.03 0,0.06 0,0.05 0,0.05 -0.1,0.04 0,0.04 0,0.04 -0.1,0.03 0,0.02 0,0.03 -0.1,0.02 0,0.02 -0.1,0 0,0.01 0,0.01 -0.1,0 0,0.01 0,0 -0.1,0.01 0,0 -0.1,0.01 0,0 0,0 -0.1,0 0,0 -0.1,0.01 0,0 -0.1,0 0,0 -0.1,0 0,0 -0.1,0 -0.1,0 0,0 h -2.8 c -1.3,0 -1.4,-0.05 -1.4,-1.34 v -28.21 c 0,-1.29 0.1,-1.34 1.4,-1.34 h 2.8 c 1.3,0 1.4,0.05 1.4,1.34 z"
             id="path3942"
             style="fill:#000000;stroke-width:0" /><path
             d="m 1252,251.66 0,0.05 0,0.04 -0.1,0.05 0,0.04 0,0.03 0,0.04 0,0.03 0,0.03 0,0.03 -0.1,0.03 0,0.02 0,0.02 0,0.02 -0.1,0.02 0,0.01 -0.1,0.01 0,0.02 0,0.01 -0.1,0.01 0,0 -0.1,0.01 0,0.01 -0.1,0 -0.1,0 0,0.01 -0.1,0 -0.1,0 -0.1,0 0,0 -0.1,0 -0.1,0 -0.1,0 h -2.8 c -1.1,0 -1.4,0 -1.4,-0.68 0,-5.14 0,-17 -1.3,-29.4 -2.7,-25.76 -9.3,-43.59 -20.2,-58.89 -0.4,-0.45 -0.4,-0.54 -0.4,-0.65 0,-0.5 0.4,-0.5 1.2,-0.5 0.7,0 0.9,0 1,0.11 0.2,0.14 6.5,7.42 11.5,17.43 6.6,13.15 10.7,28.26 12.6,46.38 0.1,1.55 1.2,11.91 1.2,23.72 z"
             id="path3944"
             style="fill:#000000;stroke-width:0" /><path
             d="m 1314.5,285.46 0.2,0 0.1,0 0.1,0 0.1,0.01 0.1,0 0.1,0.01 0,0.01 0.1,0.01 0.1,0.01 0,0.01 0.1,0.02 0.1,0.02 0,0.02 0.1,0.02 0.1,0.03 0,0.03 0.1,0.04 0,0.04 0.1,0.04 0,0.04 0,0.05 0.1,0.03 0,0.03 0,0.02 0,0.03 0,0.04 0,0.03 0,0.03 0.1,0.04 0,0.03 0,0.04 0,0.04 0,0.04 0,0.04 0,0.04 0,0.05 0,0.04 c 0,1 -1,1 -1.6,1 h -29.9 c -0.7,0 -1.6,0 -1.6,-1 0,-0.98 0.9,-0.98 1.7,-0.98 z"
             id="path3946"
             style="fill:#000000;stroke-width:0" /><path
             d="m 1314.6,275.79 0,0 0.1,0 0.1,0 0.2,0 0,0.01 0.1,0 0.1,0.01 0,0.01 0.1,0.01 0.1,0.01 0,0.01 0.1,0.02 0.1,0.02 0,0.02 0.1,0.02 0.1,0.03 0,0.03 0.1,0.04 0,0.04 0.1,0.04 0,0.05 0,0.02 0,0.03 0.1,0.02 0,0.03 0,0.03 0,0.03 0,0.03 0,0.04 0,0.03 0.1,0.03 0,0.04 0,0.04 0,0.04 0,0.04 0,0.04 0,0.04 0,0.05 0,0.05 c 0,1 -1,1 -1.7,1 h -29.7 c -0.8,0 -1.7,0 -1.7,-1 0,-1 0.9,-1 1.6,-1 z"
             id="path3948"
             style="fill:#000000;stroke-width:0" /><path
             d="m 1367.8,222.45 0,0.02 0,0.02 0,0.01 0,0.02 0,0.02 0,0.01 0,0.02 0,0.01 0,0.02 0,0.01 0,0.02 0,0.01 0,0.01 0,0.02 0,0.01 0,0.01 0,0.03 -0.1,0.02 0,0.03 0,0.02 0,0.03 0,0.03 0,0.02 -0.1,0.03 c -1.8,1.85 -5.1,5.17 -8.5,10.56 -8,12.85 -11.6,29.05 -11.6,48.22 0,13.41 1.8,30.69 10,45.55 3.9,7.06 8,11.16 10.2,13.34 0.1,0.16 0.1,0.25 0.1,0.41 0,0.5 -0.3,0.5 -1,0.5 -0.7,0 -0.8,0 -1.6,-0.75 -16.6,-15.2 -21.9,-38.02 -21.9,-59 0,-19.58 4.5,-39.3 17.2,-54.2 1,-1.14 2.8,-3.19 4.9,-4.99 0.6,-0.59 0.7,-0.59 1.4,-0.59 0.7,0 1,0 1,0.5 z"
             id="path3950"
             style="fill:#000000;stroke-width:0" /><path
             d="m 1417.4,315.46 0,0.74 0,0.75 0,0.75 0,0.74 -0.1,0.75 0,0.74 -0.1,0.74 -0.1,0.73 -0.1,0.73 -0.2,0.73 -0.1,0.72 -0.2,0.72 -0.2,0.72 -0.3,0.7 -0.2,0.7 -0.2,0.35 -0.2,0.34 c -2.2,4.8 -6.3,5.6 -8.4,5.6 -3,0 -6.7,-1.3 -8.7,-5.94 -1.6,-3.44 -1.8,-7.33 -1.8,-11.31 0,-3.74 0.2,-8.22 2.2,-12 2.1,-4.03 5.8,-5.03 8.2,-5.03 v 1.09 c -1.9,0 -4.9,1.25 -5.8,6.03 -0.5,2.99 -0.5,7.56 -0.5,10.52 0,3.18 0,6.47 0.4,9.15 0.9,5.94 4.7,6.38 5.9,6.38 1.7,0 5,-0.89 5.9,-5.83 0.5,-2.78 0.5,-6.58 0.5,-9.7 0,-3.75 0,-7.13 -0.5,-10.32 -0.8,-4.73 -3.6,-6.23 -5.9,-6.23 h 0 v -1.09 c 2.7,0 6.5,1.04 8.7,5.78 1.6,3.43 1.8,7.31 1.8,11.25 z"
             id="path3952"
             style="fill:#000000;stroke-width:0" /><path
             d="m 1483.8,331.41 0,0.05 0,0.06 0,0.05 0,0.05 0,0.05 0,0.05 0,0.04 0,0.05 0,0.04 0,0.04 0,0.04 0,0.04 0,0.04 0,0.03 0,0.04 0,0.03 0,0.07 0,0.06 0,0.05 -0.1,0.05 0,0.05 0,0.04 0,0.04 0,0.03 -0.1,0.04 0,0.02 0,0.03 -0.1,0.02 0,0.02 0,0.01 -0.1,0.01 0,0 0,0.01 -0.1,0.01 0,0 0,0.01 0,0 -0.1,0.01 0,0 0,0 -0.1,0.01 0,0 -0.1,0 0,0 0,0 -0.1,0 0,0.01 -0.1,0 0,0 -0.1,0 0,0 c -3.1,-3.19 -7.5,-3.19 -9.1,-3.19 v -1.55 c 1,0 3.9,0 6.5,1.3 v -25.81 c 0,-1.8 -0.1,-2.39 -4.6,-2.39 h -1.6 v -1.55 c 1.7,0.16 6.1,0.16 8,0.16 2,0 6.4,0 8.1,-0.16 v 1.55 h -1.6 c -4.5,0 -4.6,0.54 -4.6,2.39 z"
             id="path3954"
             style="fill:#000000;stroke-width:0" /><path
             d="m 1566.8,315.46 0,0.74 0,0.75 0,0.75 0,0.74 -0.1,0.75 0,0.74 -0.1,0.74 -0.1,0.73 -0.1,0.73 -0.2,0.73 -0.1,0.72 -0.2,0.72 -0.2,0.72 -0.3,0.7 -0.2,0.7 -0.2,0.35 -0.2,0.34 c -2.2,4.8 -6.3,5.6 -8.4,5.6 -3,0 -6.7,-1.3 -8.7,-5.94 -1.6,-3.44 -1.9,-7.33 -1.9,-11.31 0,-3.74 0.3,-8.22 2.3,-12 2.1,-4.03 5.8,-5.03 8.2,-5.03 v 1.09 c -1.9,0 -4.9,1.25 -5.8,6.03 -0.5,2.99 -0.5,7.56 -0.5,10.52 0,3.18 0,6.47 0.4,9.15 0.9,5.94 4.7,6.38 5.9,6.38 1.7,0 5,-0.89 5.9,-5.83 0.5,-2.78 0.5,-6.58 0.5,-9.7 0,-3.75 0,-7.13 -0.5,-10.32 -0.8,-4.73 -3.6,-6.23 -5.9,-6.23 h 0 v -1.09 c 2.7,0 6.5,1.04 8.7,5.78 1.6,3.43 1.8,7.31 1.8,11.25 z"
             id="path3956"
             style="fill:#000000;stroke-width:0" /><path
             d="m 1641.6,315.46 0,0.74 0,0.75 0,0.75 -0.1,0.74 0,0.75 -0.1,0.74 -0.1,0.74 -0.1,0.73 -0.1,0.73 -0.1,0.73 -0.2,0.72 -0.2,0.72 -0.2,0.72 -0.2,0.7 -0.3,0.7 -0.2,0.35 -0.1,0.34 c -2.3,4.8 -6.4,5.6 -8.5,5.6 -3,0 -6.6,-1.3 -8.7,-5.94 -1.5,-3.44 -1.8,-7.33 -1.8,-11.31 0,-3.74 0.2,-8.22 2.3,-12 2.1,-4.03 5.7,-5.03 8.2,-5.03 v 1.09 c -2,0 -4.9,1.25 -5.8,6.03 -0.5,2.99 -0.5,7.56 -0.5,10.52 0,3.18 0,6.47 0.4,9.15 0.9,5.94 4.6,6.38 5.9,6.38 1.6,0 4.9,-0.89 5.8,-5.83 0.5,-2.78 0.5,-6.58 0.5,-9.7 0,-3.75 0,-7.13 -0.5,-10.32 -0.7,-4.73 -3.6,-6.23 -5.8,-6.23 h 0 v -1.09 c 2.7,0 6.5,1.04 8.7,5.78 1.5,3.43 1.8,7.31 1.8,11.25 z"
             id="path3958"
             style="fill:#000000;stroke-width:0" /><path
             d="m 1417.4,255.7 0,0.75 0,0.74 0,0.75 0,0.75 -0.1,0.74 0,0.74 -0.1,0.74 -0.1,0.73 -0.1,0.74 -0.2,0.72 -0.1,0.73 -0.2,0.72 -0.2,0.71 -0.3,0.7 -0.2,0.7 -0.2,0.35 -0.2,0.35 c -2.2,4.79 -6.3,5.59 -8.4,5.59 -3,0 -6.7,-1.3 -8.7,-5.94 -1.6,-3.44 -1.8,-7.33 -1.8,-11.31 0,-3.74 0.2,-8.22 2.2,-12 2.1,-4.03 5.8,-5.03 8.2,-5.03 v 1.09 c -1.9,0 -4.9,1.25 -5.8,6.03 -0.5,2.99 -0.5,7.56 -0.5,10.52 0,3.19 0,6.47 0.4,9.15 0.9,5.94 4.7,6.38 5.9,6.38 1.7,0 5,-0.89 5.9,-5.83 0.5,-2.78 0.5,-6.58 0.5,-9.7 0,-3.75 0,-7.13 -0.5,-10.31 -0.8,-4.74 -3.6,-6.24 -5.9,-6.24 h 0 v -1.09 c 2.7,0 6.5,1.04 8.7,5.78 1.6,3.44 1.8,7.31 1.8,11.25 z"
             id="path3960"
             style="fill:#000000;stroke-width:0" /><path
             d="m 1492.1,255.7 0,0.75 0,0.74 -0.1,0.75 0,0.75 0,0.74 -0.1,0.74 -0.1,0.74 -0.1,0.73 -0.1,0.74 -0.1,0.72 -0.2,0.73 -0.2,0.72 -0.2,0.71 -0.2,0.7 -0.3,0.7 -0.2,0.35 -0.1,0.35 c -2.3,4.79 -6.4,5.59 -8.5,5.59 -3,0 -6.6,-1.3 -8.7,-5.94 -1.6,-3.44 -1.8,-7.33 -1.8,-11.31 0,-3.74 0.2,-8.22 2.2,-12 2.2,-4.03 5.8,-5.03 8.3,-5.03 v 1.09 c -2,0 -4.9,1.25 -5.8,6.03 -0.6,2.99 -0.6,7.56 -0.6,10.52 0,3.19 0,6.47 0.4,9.15 1,5.94 4.7,6.38 6,6.38 1.6,0 4.9,-0.89 5.8,-5.83 0.5,-2.78 0.5,-6.58 0.5,-9.7 0,-3.75 0,-7.13 -0.5,-10.31 -0.8,-4.74 -3.6,-6.24 -5.8,-6.24 h 0 v -1.09 c 2.6,0 6.4,1.04 8.6,5.78 1.6,3.44 1.9,7.31 1.9,11.25 z"
             id="path3962"
             style="fill:#000000;stroke-width:0" /><path
             d="m 1566.8,255.7 0,0.75 0,0.74 0,0.75 0,0.75 -0.1,0.74 0,0.74 -0.1,0.74 -0.1,0.73 -0.1,0.74 -0.2,0.72 -0.1,0.73 -0.2,0.72 -0.2,0.71 -0.3,0.7 -0.2,0.7 -0.2,0.35 -0.2,0.35 c -2.2,4.79 -6.3,5.59 -8.4,5.59 -3,0 -6.7,-1.3 -8.7,-5.94 -1.6,-3.44 -1.9,-7.33 -1.9,-11.31 0,-3.74 0.3,-8.22 2.3,-12 2.1,-4.03 5.8,-5.03 8.2,-5.03 v 1.09 c -1.9,0 -4.9,1.25 -5.8,6.03 -0.5,2.99 -0.5,7.56 -0.5,10.52 0,3.19 0,6.47 0.4,9.15 0.9,5.94 4.7,6.38 5.9,6.38 1.7,0 5,-0.89 5.9,-5.83 0.5,-2.78 0.5,-6.58 0.5,-9.7 0,-3.75 0,-7.13 -0.5,-10.31 -0.8,-4.74 -3.6,-6.24 -5.9,-6.24 h 0 v -1.09 c 2.7,0 6.5,1.04 8.7,5.78 1.6,3.44 1.8,7.31 1.8,11.25 z"
             id="path3964"
             style="fill:#000000;stroke-width:0" /><path
             d="m 1633.3,271.65 0,0.06 0,0.05 0,0.05 0,0.05 0,0.05 0,0.05 0,0.04 0,0.05 0,0.04 0,0.04 0,0.04 0,0.04 0,0.04 0,0.04 0,0.03 0,0.04 0,0.06 0,0.06 0,0.05 -0.1,0.05 0,0.05 0,0.04 0,0.04 0,0.04 -0.1,0.03 0,0.03 0,0.02 -0.1,0.02 0,0.02 0,0.01 -0.1,0.01 0,0 0,0.01 0,0.01 -0.1,0 0,0.01 0,0 -0.1,0.01 0,0 0,0 -0.1,0.01 0,0 -0.1,0 0,0 0,0.01 -0.1,0 0,0 -0.1,0 0,0 -0.1,0 0,0 c -3.1,-3.19 -7.5,-3.19 -9.1,-3.19 v -1.55 c 1,0 4,0 6.5,1.3 V 243.7 c 0,-1.8 -0.1,-2.39 -4.6,-2.39 h -1.6 v -1.55 c 1.8,0.16 6.1,0.16 8.1,0.16 2,0 6.3,0 8.1,-0.16 v 1.55 h -1.7 c -4.4,0 -4.6,0.54 -4.6,2.39 z"
             id="path3966"
             style="fill:#000000;stroke-width:0" /><path
             d="m 1694.7,281.68 0,3.68 -0.2,3.66 -0.3,3.66 -0.4,3.64 -0.5,3.61 -0.7,3.58 -0.8,3.54 -0.9,3.49 -1.1,3.44 -0.6,1.7 -0.6,1.68 -0.7,1.66 -0.7,1.64 -0.8,1.62 -0.8,1.61 -0.8,1.58 -0.9,1.56 -0.9,1.54 -1,1.52 -1,1.49 -1.1,1.46 -1.1,1.44 -1.2,1.41 c -1,1.15 -2.9,3.18 -4.9,4.98 -0.6,0.61 -0.7,0.61 -1.4,0.61 -0.6,0 -1.1,0 -1.1,-0.5 0,-0.2 0.2,-0.41 0.3,-0.5 1.8,-1.8 5.1,-5.14 8.4,-10.52 8.1,-12.85 11.7,-29.04 11.7,-48.23 0,-13.39 -1.8,-30.69 -10,-45.53 -3.9,-7.08 -8.1,-11.2 -10.2,-13.3 -0.1,-0.15 -0.2,-0.3 -0.2,-0.45 0,-0.5 0.5,-0.5 1.1,-0.5 0.7,0 0.8,0 1.5,0.75 16.7,15.2 21.9,38.01 21.9,58.98 z"
             id="path3968"
             style="fill:#000000;stroke-width:0" /></g>      </g>
    </g>
  </g>
</svg>
